<svg width="100" height="80" viewBox="0 0 100 80" fill="none" xmlns="http://www.w3.org/2000/svg">
<g clip-path="url(#clip0_1_11)">
<path d="M81.7017 26.7443C80.6426 26.8867 79.6488 26.2957 78.6685 25.8528C78.0575 25.578 77.3012 25.6392 76.8192 25.0511C76.1593 25.0383 75.5796 24.6766 74.9726 24.4815C73.8946 24.1455 72.8355 23.7026 71.9041 22.9365C70.4473 21.7403 68.7487 20.9329 67.114 20.04C66.3468 19.6128 65.6652 19.0105 64.7922 18.8026C64.5994 18.7556 64.4216 18.626 64.2274 18.5918C63.9029 18.532 63.7467 18.5918 64.0346 18.9507C64.1215 19.0618 64.0346 19.3167 64.0346 19.506C64.0441 20.4473 64.4148 20.9614 65.338 21.3416C65.4616 21.3929 65.5593 21.5495 65.6788 21.5623C65.9327 21.5908 66.0142 21.7631 65.9015 21.924C65.7888 22.0849 65.5634 22.1433 65.3883 22.2487C65.1398 21.7788 64.6198 22.1063 64.2491 21.8058C63.9379 21.5723 63.6571 21.297 63.4141 20.987C62.9769 20.3704 62.2016 20.265 61.7685 19.6741C61.3503 19.788 60.9199 19.8706 60.5153 20.0272C60.2356 20.1369 59.9939 20.3548 59.7305 20.5171C59.6427 20.5626 59.552 20.6017 59.459 20.6339C59.5526 20.6709 59.6477 20.7065 59.74 20.7464C60.6416 21.1422 61.2661 21.8856 61.8961 22.6275C61.9564 22.7438 61.971 22.8802 61.9369 23.0077C61.9287 23.0461 61.7318 23.0931 61.6517 23.0589C60.7665 22.683 59.7509 22.8525 58.8982 22.3256C58.3823 22.0066 57.793 21.8158 57.2866 21.484C56.5941 21.0312 55.9505 20.4986 55.2852 20.0016C54.4258 19.3579 53.5337 18.757 52.7177 18.0578C52.2969 17.6735 51.9432 17.2152 51.6722 16.7036C51.383 16.1838 50.9458 15.919 50.4828 15.6527C50.2879 15.5149 50.0832 15.393 49.8705 15.2882C49.6628 15.2098 49.5093 14.9834 49.1916 15.3109C48.1675 16.3913 47.2701 17.596 46.5182 18.8994C45.7443 20.2081 45.0736 21.605 43.9249 22.636C43.6954 22.8411 43.5583 23.1543 43.3628 23.4035C43.042 23.8363 42.6984 24.2499 42.3336 24.6424C41.9821 24.9971 41.5947 25.3103 41.1782 25.5766C40.6907 25.8884 40.206 26.233 39.5719 26.1732C39.3235 26.1504 39.0641 26.2701 38.8089 26.3256C38.9365 26.0607 39.1225 25.8087 39.1809 25.5282C39.2936 24.9771 39.6819 24.6738 40.02 24.3078C41.0437 23.2151 42.0639 22.1196 43.0804 21.0212C43.1125 20.9731 43.1376 20.9203 43.155 20.8645C43.096 20.8319 43.033 20.8079 42.9677 20.7933C42.7518 20.7791 42.5318 20.8005 42.3187 20.7706C41.5271 20.6566 40.8876 20.913 40.3364 21.5281C40.115 21.7745 39.7702 21.9069 39.4687 22.065C38.8849 22.3697 38.2997 22.6474 37.8272 23.1543C37.4117 23.6001 36.8035 23.6855 36.2468 23.7895C35.9114 23.8507 35.6711 23.8692 35.5177 24.2665C35.405 24.5513 35.1104 24.7777 34.8809 24.9999C34.7662 25.0728 34.636 25.1148 34.5021 25.1223C34.4331 25.124 34.3643 25.1139 34.2984 25.0924C34.3242 25.0127 34.3283 24.9087 34.3785 24.856C34.9542 24.2551 35.4647 23.5744 36.0567 23.0162C36.9135 22.2117 37.7267 21.2761 38.908 20.9016C39.2529 20.7919 39.5421 20.4858 39.8462 20.2551C39.8788 20.2294 39.8625 20.0472 39.8462 20.0415C39.5203 19.9446 39.1918 19.8492 38.8591 19.7866C38.6446 19.7453 38.4518 19.7382 38.4287 20.0984C38.4192 20.2237 38.1123 20.3263 37.9426 20.4402C37.3615 20.8218 36.7532 21.1522 36.2373 21.6463C35.7213 22.1405 35.0289 22.3996 34.3514 22.6275C34.0988 22.7129 33.7784 22.7699 33.6277 22.9678C32.866 23.9375 31.6725 24.3918 31.0086 25.5082C30.7289 25.9781 30.1097 26.2886 29.5843 26.5207C28.6556 26.9294 27.8966 27.6001 27.0982 28.1925C26.4262 28.6923 25.7799 29.2263 25.0155 29.5481C24.4235 29.7973 23.951 30.3043 23.2925 30.4025C23.0562 30.4381 22.8213 30.4851 22.5837 30.5079C22.5552 30.5079 22.4765 30.3441 22.4873 30.3313C23.1173 29.7219 23.7568 29.1223 24.3882 28.5157C24.9313 27.9903 25.6998 27.7738 26.0826 26.9878C26.2095 26.7443 26.3889 26.5354 26.6065 26.3776C26.8241 26.2199 27.0739 26.1177 27.3359 26.0792C27.3983 26.0693 27.4839 25.924 27.4811 25.8443C27.4682 25.7982 27.4455 25.7558 27.4147 25.7203C27.3839 25.6848 27.3458 25.6571 27.3033 25.6392C26.805 25.4356 26.2782 25.2932 25.8097 25.034C25.5653 24.8988 25.4744 24.9529 25.2666 25.0739C24.6407 25.4456 24.1492 25.9767 23.6509 26.4979C22.9489 27.2284 22.1574 27.6699 21.1323 27.5303C20.5892 27.4563 20.1601 27.6983 19.6836 27.9746C18.987 28.379 18.3801 29.0184 17.5193 29.0739C17.2993 29.447 17.0875 28.8119 16.8404 29.0739C16.6517 29.2719 16.3801 29.3787 16.1615 29.5524C15.9891 29.6948 15.9524 29.6549 15.9253 29.447C15.8493 28.8774 16.1602 28.5684 16.5919 28.322C18.2416 27.3794 19.8736 26.4025 21.6075 25.6307C21.9489 25.4547 22.26 25.2203 22.528 24.9372C23.1143 24.37 23.7592 23.8733 24.4506 23.4562C25.1363 23.0433 25.7133 22.9692 26.5117 23.2725C27.3378 23.5637 28.1267 23.9602 28.8606 24.453C29.1756 24.6752 29.7038 24.567 29.8884 24.2323C30.2958 23.4861 30.7968 22.8525 31.5897 22.5335C31.653 22.496 31.707 22.4433 31.7472 22.3797C32.4029 21.5759 33.2792 21.004 34.2563 20.7421C34.8809 20.5627 35.3955 20.1056 35.9019 19.6954C36.5034 19.2084 37.2773 19.0119 37.7811 18.3612C38.0621 17.998 38.5102 18.1262 38.8673 18.2544C39.466 18.468 40.0349 18.7713 40.6323 19.0034C41.2187 19.2602 41.8234 19.4683 42.4409 19.6257C42.8604 19.714 43.2379 19.7965 43.5515 20.1212C43.6069 20.1845 43.6737 20.2358 43.748 20.2719C43.8224 20.3081 43.9028 20.3285 43.9846 20.332C44.1828 20.2866 44.3652 20.1846 44.5114 20.0372C45.1102 19.4676 45.7334 18.9151 46.0715 18.1248C46.453 17.2162 47.1414 16.5584 47.6804 15.7752C47.8895 15.5111 48.1111 15.2583 48.3444 15.0176C48.5509 14.7949 48.7419 14.5569 48.916 14.3056C49.4075 13.5224 50.138 13.6933 50.8454 13.736C51.0694 14.1048 51.4278 13.9539 51.7293 13.9667C52.3579 13.9937 52.9173 14.2372 53.4943 14.4665C54.4678 14.8553 55.3857 15.3921 56.4665 15.4875C56.8715 15.5328 57.2551 15.7011 57.5703 15.9717C58.1134 16.4359 58.8262 16.611 59.4712 16.8873C59.7183 16.9927 60.0374 16.987 60.2302 17.1522C60.4113 17.3037 60.6276 17.402 60.8568 17.437C61.0861 17.472 61.3201 17.4425 61.535 17.3515C61.9694 17.1636 62.3591 17.2362 62.7678 17.2091C63.019 17.1906 63.3109 17.3045 63.5173 17.2091C63.8526 17.0425 64.1581 16.6993 64.5437 16.8147C65.2565 17.0065 65.9495 17.2712 66.613 17.605C67.8648 18.2786 69.0786 19.029 70.2938 19.7723C71.0216 20.218 71.7249 20.7079 72.4323 21.1878C72.6916 21.3644 72.788 21.7958 73.1668 21.7759C73.7982 21.7446 74.4323 21.9468 75.0677 21.6919C76.0018 21.316 76.9495 20.9799 77.8959 20.6339C78.5521 20.3732 79.2216 20.1512 79.9013 19.9688C80.8599 19.7467 81.8266 19.8877 82.5055 20.6524C83.4423 21.7104 84.7037 22.2102 85.7926 22.9991C85.8782 23.0536 85.9693 23.0981 86.0641 23.1316C86.4172 23.274 86.7077 23.489 86.853 23.8749C86.4457 23.8521 86.0112 23.8991 85.6229 23.788C85.2077 23.6515 84.8151 23.4483 84.4593 23.1857C84.0642 22.9137 83.5089 22.9151 83.2482 22.3911C83.1952 22.2857 82.94 22.2615 82.7743 22.2487C82.1538 22.2088 81.4994 22.3242 81.0092 21.7674C80.9739 21.7261 80.8735 21.7531 80.8056 21.7389C80.5204 21.6805 80.3982 21.8201 80.4756 22.102C80.6847 22.814 80.7635 22.9123 81.6759 23.5787C81.9746 23.798 82.0017 23.9176 81.7465 24.0942C81.4614 24.2936 81.2034 24.4331 80.7961 24.2636C80.1495 23.991 79.5839 23.5428 79.1572 22.9649C79.0591 22.8353 78.9325 22.7324 78.7883 22.665C78.6442 22.5975 78.4866 22.5676 78.329 22.5776C77.6637 22.5677 77.0134 22.5634 76.4282 22.982C76.3312 23.0428 76.2295 23.0948 76.124 23.1373C76.2259 23.2426 76.3114 23.4035 76.4322 23.442C78.5585 24.1212 80.5272 25.1508 82.4389 26.3242C82.5544 26.394 82.6806 26.4438 82.7947 26.5164C82.8508 26.5637 82.901 26.6182 82.944 26.6788C82.8856 26.7144 82.8286 26.7813 82.7702 26.7813C82.4417 26.767 82.1171 26.7599 81.7017 26.7443Z" fill="#302E3E"/>
<path d="M44.8174 27.0176C44.7006 26.935 44.6205 26.9066 44.5961 26.8525C44.5801 26.8183 44.5718 26.7808 44.5718 26.7428C44.5718 26.7048 44.5801 26.6673 44.5961 26.6331C44.9885 26.2159 45.3578 25.7788 45.7149 25.3273C46.0516 24.9001 46.5879 24.641 47.0332 24.3021C47.2301 24.1597 47.4786 24.0287 47.5981 23.8236C48.1656 22.8595 48.9938 22.196 49.8655 21.5794C49.9812 21.5107 50.1069 21.4626 50.2375 21.437C50.3086 21.4256 50.381 21.4256 50.4521 21.437C50.4493 21.5174 50.4402 21.5974 50.4249 21.6762C50.2647 22.2002 49.8071 22.4637 49.4894 22.8482C49.4643 22.8922 49.4502 22.9422 49.4486 22.9935C49.4469 23.0448 49.4577 23.0958 49.4799 23.1415C49.5153 23.1775 49.5586 23.2037 49.606 23.2179C49.6533 23.232 49.7033 23.2337 49.7515 23.2227C50.2384 22.9106 50.7669 22.6764 51.3197 22.5278C51.617 22.4551 51.8628 22.1475 52.2239 22.2259C52.0081 22.4514 51.8042 22.6891 51.6129 22.9379C51.245 23.469 50.6557 23.637 50.1466 23.9119C49.427 24.3006 48.6096 24.5 48.0434 25.1707C47.2681 25.3046 46.7658 26.0878 45.924 26.1262C45.6701 26.139 45.4284 26.4993 45.1826 26.7029C45.0591 26.8083 44.9314 26.9208 44.8174 27.0176Z" fill="#302E3E"/>
<path d="M32.9522 32.1979C32.7947 32.121 32.5897 32.0783 32.5774 32C32.5503 31.8348 32.5639 31.5885 32.663 31.4874C33.2169 30.9178 33.7125 30.2827 34.4281 29.921C35.0526 29.6062 35.5726 29.1392 36.1117 28.692C36.6751 28.2235 37.2739 27.802 37.8686 27.3763C37.9609 27.3108 38.1103 27.335 38.2338 27.3179C38.2515 27.4603 38.3221 27.6269 38.2759 27.7451C38.1008 28.1794 37.8795 28.6208 37.4803 28.853C36.6901 29.3129 36.1606 30.0747 35.4695 30.6429C34.8585 31.1456 34.2896 31.7337 33.5048 31.9644C33.3163 32.0305 33.1317 32.1085 32.9522 32.1979Z" fill="#302E3E"/>
<path d="M15.6635 34.2141C15.557 34.228 15.449 34.2222 15.3444 34.197C15.2667 34.1435 15.2114 34.061 15.1896 33.9663C15.1874 33.9316 15.1935 33.897 15.2072 33.8654C15.221 33.8339 15.242 33.8064 15.2684 33.7854C16.06 33.3326 16.8583 32.8968 17.6472 32.4426C18.0681 32.2005 18.4686 31.9556 18.9859 32.0154C19.3865 32.0595 19.6648 31.7662 19.9744 31.5255C20.3939 31.1952 20.8135 31.4016 20.8515 31.9356C20.8381 32.0612 20.791 32.1802 20.7157 32.2788C20.2704 32.1236 20.1183 32.6092 19.8046 32.7246C19.586 32.8043 19.3579 32.9339 19.138 32.9239C18.6193 32.8997 18.2487 33.1631 17.8183 33.4152C17.1597 33.8011 16.413 34.0261 15.7042 34.318C15.6934 34.2824 15.6744 34.2482 15.6635 34.2141Z" fill="#302E3E"/>
<path d="M87.4632 30.2924C87.2948 30.2041 86.992 30.1087 86.768 29.9136C86.4775 29.6708 86.1551 29.4732 85.8108 29.3269C84.9771 28.9481 84.7924 28.7701 84.1815 28.014C84.0905 27.9001 84.0878 27.7064 84.0457 27.5498C84.2466 27.4914 84.453 27.386 84.6472 27.3917C84.7965 27.3917 84.95 27.5341 85.0857 27.6281C85.804 28.1493 86.6566 28.4227 87.3559 28.9695C87.6051 29.1889 87.8326 29.4341 88.0348 29.7014C88.11 29.803 88.1768 29.9111 88.2344 30.0247C88.0904 30.1172 87.9506 30.2184 87.7999 30.2967C87.7415 30.3195 87.6546 30.2981 87.4632 30.2924Z" fill="#302E3E"/>
<path d="M14.2467 30.4362C14.1503 30.5957 14.1109 30.721 14.0444 30.7594C13.0532 31.2522 12.0648 31.7562 11.0573 32.2034C10.6789 32.3512 10.2818 32.4395 9.87878 32.4654C9.743 32.4796 9.58279 32.3145 9.46059 32.2005C9.44023 32.1806 9.53391 31.9798 9.60995 31.9001C9.97518 31.5113 10.3458 31.1724 10.927 31.1211C11.2943 31.0799 11.6403 30.9196 11.9168 30.6626C12.3594 30.2354 12.9541 30.3935 13.4347 30.1129C13.5868 30.0218 13.9412 30.3052 14.2467 30.4362Z" fill="#302E3E"/>
<path d="M66.176 26.5901C65.8596 26.6443 65.6057 26.5047 65.3857 26.2185C64.7272 25.3641 63.7714 24.9084 62.9622 24.2519C62.8332 24.148 62.6594 24.1095 62.5331 23.9942C62.4973 23.9577 62.47 23.913 62.4535 23.8635C62.4371 23.8141 62.4318 23.7613 62.4381 23.7094C62.4599 23.6668 62.4914 23.6305 62.5297 23.6037C62.5681 23.5769 62.6121 23.5603 62.658 23.5556C63.193 23.5556 63.7605 23.5086 63.9873 24.2078C64.563 24.4299 64.8114 25.1206 65.5093 25.2544C65.9166 25.3327 66.2615 25.8482 66.6213 26.1843C66.654 26.224 66.6768 26.2715 66.6877 26.3227C66.6986 26.3739 66.6973 26.4271 66.6838 26.4776C66.6525 26.5446 66.5154 26.5688 66.4204 26.5916C66.3391 26.6003 66.2571 26.5998 66.176 26.5901Z" fill="#302E3E"/>
<path d="M58.4788 25.7911C58.4367 25.8253 58.3689 25.9335 58.2955 25.9335C57.8964 25.9549 57.5854 25.7612 57.2989 25.4764C57.0125 25.1916 56.6513 24.9439 56.3485 24.6491C56.1286 24.4312 55.8529 24.239 55.9005 23.8232C55.914 23.6922 55.7117 23.5384 55.618 23.396C55.3859 23.0286 55.3234 22.6754 55.4049 22.7082C55.5878 22.7928 55.7598 22.9014 55.9167 23.0314C56.3594 23.3547 56.8441 23.6338 57.2229 24.0282C57.6886 24.511 58.0647 25.0891 58.4748 25.6288C58.4978 25.643 58.4815 25.6943 58.4788 25.7911Z" fill="#302E3E"/>
<path d="M76.2394 26.7679C76.5337 26.902 76.8199 27.0552 77.0961 27.2265C77.5754 27.5597 78.0357 27.9271 78.4919 28.2973C78.5249 28.3368 78.5478 28.3844 78.5585 28.4357C78.5692 28.487 78.5673 28.5403 78.553 28.5907C78.5206 28.6318 78.4785 28.6633 78.4308 28.6818C78.3831 28.7003 78.3315 28.7052 78.2814 28.696C77.4586 28.3116 76.5041 28.1663 75.9257 27.3262C75.862 27.2038 75.8128 27.0737 75.7791 26.9388L76.2394 26.7679Z" fill="#302E3E"/>
<path d="M90.0834 26.1259C89.7836 25.9783 89.4938 25.8094 89.2158 25.6204C89.1636 25.5619 89.1266 25.4904 89.1083 25.4126C89.09 25.3348 89.091 25.2534 89.1113 25.1761C89.1778 25.0437 89.2932 24.776 89.5648 25.0679C89.7603 25.2772 90.0956 25.3385 90.3455 25.5051C90.4446 25.5706 90.4812 25.7415 90.5437 25.8639L90.0834 26.1259Z" fill="#302E3E"/>
<path d="M66.0808 23.1994C66.1514 23.1083 66.2247 22.9588 66.2682 22.9687C66.7298 23.067 67.2186 23.1197 67.5662 23.5027C67.6205 23.5611 67.6124 23.7049 67.5947 23.8032C67.5947 23.8431 67.4712 23.9029 67.4236 23.8872C67.0421 23.7605 66.6606 23.6266 66.2886 23.4714C66.2017 23.4372 66.1623 23.3091 66.0808 23.1994Z" fill="#302E3E"/>
<path d="M83.0998 24.5054C83.2058 24.4984 83.3122 24.5023 83.4175 24.5168C83.6755 24.5809 83.89 24.7574 83.8316 25.0394C83.7692 25.3441 83.3754 25.2444 83.317 25.1718C83.059 24.8528 82.7318 24.9938 82.4386 24.934C82.4101 24.9165 82.3864 24.8915 82.3697 24.8616C82.3531 24.8317 82.3441 24.7978 82.3435 24.7631C82.3584 24.6677 82.4128 24.5082 82.463 24.5026C82.6751 24.4878 82.8878 24.4888 83.0998 24.5054Z" fill="#302E3E"/>
<path d="M47.8718 28.823L48.1976 28.954C48.1044 29.0148 48.0027 29.06 47.8962 29.0879C47.7984 29.0804 47.7027 29.0544 47.6138 29.011L47.8718 28.823Z" fill="#302E3E"/>
<path d="M33.0885 26.1772C32.9438 26.2547 32.7935 26.3204 32.6391 26.3737C32.593 26.3851 32.5264 26.3025 32.4694 26.2626C32.539 26.1693 32.6167 26.083 32.7016 26.0049C32.726 25.9849 32.8143 26.0476 33.0885 26.1772Z" fill="#302E3E"/>
</g>
<path d="M2.95059 37.4455V46.9915H7.40013V48.3169H1.51474V37.4455H2.95059ZM14.5405 42.1002V40.9483H15.9133V48.3169H14.5405V47.0073C14.0514 47.8909 13.0258 48.5062 11.8424 48.5062C9.91742 48.5062 8.22912 46.881 8.22912 44.6247C8.22912 42.4473 9.82275 40.759 11.9055 40.759C13.01 40.759 14.0514 41.2323 14.5405 42.1002ZM12.0475 47.2124C13.3571 47.2124 14.5405 46.1237 14.5405 44.6247C14.5405 43.11 13.2625 42.0528 12.0317 42.0528C10.6906 42.0528 9.61763 43.2362 9.61763 44.6247C9.61763 46.029 10.6906 47.2124 12.0475 47.2124ZM27.3898 48.5062C24.313 48.5062 21.8673 45.9817 21.8673 42.9049C21.8673 39.828 24.313 37.2561 27.3898 37.2561C29.0623 37.2561 30.514 37.9662 31.4764 39.1022L30.4351 39.9858C29.7092 39.1338 28.6047 38.5815 27.3898 38.5815C25.1019 38.5815 23.3032 40.5696 23.3032 42.9049C23.3032 45.2243 25.1019 47.1808 27.3898 47.1808C28.6047 47.1808 29.7092 46.6286 30.4351 45.7766L31.4764 46.6601C30.514 47.7962 29.0623 48.5062 27.3898 48.5062ZM38.9171 42.1002V40.9483H40.2899V48.3169H38.9171V47.0073C38.428 47.8909 37.4024 48.5062 36.219 48.5062C34.294 48.5062 32.6057 46.881 32.6057 44.6247C32.6057 42.4473 34.1993 40.759 36.2821 40.759C37.3866 40.759 38.428 41.2323 38.9171 42.1002ZM36.4241 47.2124C37.7337 47.2124 38.9171 46.1237 38.9171 44.6247C38.9171 43.11 37.6391 42.0528 36.4083 42.0528C35.0672 42.0528 33.9942 43.2362 33.9942 44.6247C33.9942 46.029 35.0672 47.2124 36.4241 47.2124ZM46.6868 40.759C48.7065 40.759 50.379 42.3211 50.379 44.6405C50.379 46.9757 48.7223 48.5062 46.7026 48.5062C45.5981 48.5062 44.5567 48.0329 44.0676 47.1651V51.8986H42.6949V40.9483H44.0676V42.1002C44.5567 41.2639 45.6297 40.759 46.6868 40.759ZM46.5606 47.2124C47.9175 47.2124 48.9905 46.1395 48.9905 44.6563C48.9905 43.1889 47.9175 42.0528 46.5606 42.0528C45.251 42.0528 44.0676 43.0784 44.0676 44.6563C44.0676 46.2499 45.3614 47.2124 46.5606 47.2124ZM52.973 39.1496C52.4523 39.1496 52.0105 38.7551 52.0105 38.2344C52.0105 37.7137 52.4523 37.3193 52.973 37.3193C53.5094 37.3193 53.9512 37.7137 53.9512 38.2344C53.9512 38.7551 53.5094 39.1496 52.973 39.1496ZM53.6672 48.3169H52.2945V40.9483H53.6672V48.3169ZM57.995 40.9483H59.5886V42.1317H57.995V48.3169H56.6222V42.1317H55.2968V40.9483H56.6222V38.1713H57.995V40.9483ZM66.7761 42.1002V40.9483H68.1488V48.3169H66.7761V47.0073C66.287 47.8909 65.2614 48.5062 64.078 48.5062C62.153 48.5062 60.4647 46.881 60.4647 44.6247C60.4647 42.4473 62.0583 40.759 64.1411 40.759C65.2456 40.759 66.287 41.2323 66.7761 42.1002ZM64.2831 47.2124C65.5927 47.2124 66.7761 46.1237 66.7761 44.6247C66.7761 43.11 65.498 42.0528 64.2673 42.0528C62.9261 42.0528 61.8532 43.2362 61.8532 44.6247C61.8532 46.029 62.9261 47.2124 64.2831 47.2124ZM71.9266 48.3169H70.5538V36.9406H71.9266V48.3169ZM81.7441 48.5062C79.4562 48.5062 77.9257 46.9284 77.9099 45.2401H79.33C79.3773 46.2026 80.2925 47.1808 81.7441 47.1808C83.1484 47.1808 83.9373 46.2657 83.9373 45.3032C83.9373 44.246 82.9749 43.7727 82.0597 43.536L80.6554 43.1889C78.3517 42.6366 77.9888 41.2797 77.9888 40.3961C77.9888 38.5184 79.6771 37.2561 81.5706 37.2561C83.4798 37.2561 85.0103 38.4711 85.0103 40.4119H83.5902C83.5902 39.3231 82.6908 38.5815 81.5232 38.5815C80.4345 38.5815 79.4247 39.3074 79.4247 40.3803C79.4247 40.759 79.5509 41.5163 81.0025 41.895L82.4226 42.2737C84.2687 42.7629 85.3732 43.7096 85.3732 45.2559C85.3732 46.9442 84.0005 48.5062 81.7441 48.5062ZM87.9977 48.4747C87.4613 48.4747 87.0037 48.0802 87.0037 47.528C87.0037 46.9599 87.4613 46.5497 87.9977 46.5497C88.55 46.5497 89.0233 46.9599 89.0233 47.528C89.0233 48.0802 88.55 48.4747 87.9977 48.4747ZM99.7707 48.3169H98.2718L97.2146 45.5241H92.5442L91.487 48.3169H89.988L94.122 37.4455H95.6368L99.7707 48.3169ZM94.8794 39.3231L93.0175 44.2618H96.7413L94.8794 39.3231Z" fill="#302E3E"/>
<path d="M3.528 63.4609C1.788 63.4609 0.624 62.2609 0.612 60.9769H1.692C1.728 61.7089 2.424 62.4529 3.528 62.4529C4.596 62.4529 5.196 61.7569 5.196 61.0249C5.196 60.2209 4.464 59.8609 3.768 59.6809L2.7 59.4169C0.948 58.9969 0.672 57.9649 0.672 57.2929C0.672 55.8649 1.956 54.9049 3.396 54.9049C4.848 54.9049 6.012 55.8289 6.012 57.3049H4.932C4.932 56.4769 4.248 55.9129 3.36 55.9129C2.532 55.9129 1.764 56.4649 1.764 57.2809C1.764 57.5689 1.86 58.1449 2.964 58.4329L4.044 58.7209C5.448 59.0929 6.288 59.8129 6.288 60.9889C6.288 62.2729 5.244 63.4609 3.528 63.4609ZM12.16 58.5889V57.7129H13.204V63.3169H12.16V62.3209C11.788 62.9929 11.008 63.4609 10.108 63.4609C8.64403 63.4609 7.36003 62.2249 7.36003 60.5089C7.36003 58.8529 8.57203 57.5689 10.156 57.5689C10.996 57.5689 11.788 57.9289 12.16 58.5889ZM10.264 62.4769C11.26 62.4769 12.16 61.6489 12.16 60.5089C12.16 59.3569 11.188 58.5529 10.252 58.5529C9.23203 58.5529 8.41603 59.4529 8.41603 60.5089C8.41603 61.5769 9.23203 62.4769 10.264 62.4769ZM16.0771 63.3169H15.0331V54.6649H16.0771V63.3169ZM18.4085 56.3449C18.0125 56.3449 17.6765 56.0449 17.6765 55.6489C17.6765 55.2529 18.0125 54.9529 18.4085 54.9529C18.8165 54.9529 19.1525 55.2529 19.1525 55.6489C19.1525 56.0449 18.8165 56.3449 18.4085 56.3449ZM18.9365 63.3169H17.8925V57.7129H18.9365V63.3169ZM23.6558 57.5689C25.0478 57.5689 25.9238 58.5049 25.9118 60.0769V63.3169H24.8678V60.1369C24.8678 59.2009 24.2918 58.6009 23.5118 58.6009C22.7318 58.6009 21.7958 59.0689 21.7958 60.2809V63.3169H20.7518V57.7129H21.7958V58.5649C22.1318 57.8809 23.0438 57.5689 23.6558 57.5689ZM32.9462 60.4969C32.9462 60.6529 32.9342 60.8089 32.9222 60.9649H28.3622C28.5182 61.9609 29.2382 62.4769 30.1982 62.4769C30.8822 62.4769 31.5062 62.1649 31.8302 61.6009L32.7302 61.9609C32.2502 62.9329 31.2422 63.4609 30.1622 63.4609C28.5662 63.4609 27.2822 62.2729 27.2822 60.4969C27.2822 58.7209 28.5662 57.5689 30.1622 57.5689C31.7582 57.5689 32.9462 58.7209 32.9462 60.4969ZM28.3742 60.0649H31.9022C31.7702 59.1049 31.0862 58.5529 30.1622 58.5529C29.2142 58.5529 28.5422 59.0569 28.3742 60.0649ZM36.997 57.5689C37.393 57.5689 37.801 57.6769 37.969 57.7849L37.801 58.7689C37.501 58.6249 37.201 58.5769 36.985 58.5769C35.869 58.5769 35.425 59.7889 35.425 61.2649V63.3169H34.369V57.7129H35.425V58.9849C35.713 58.0009 36.253 57.5689 36.997 57.5689ZM43.2382 58.5889V57.7129H44.2822V63.3169H43.2382V62.3209C42.8662 62.9929 42.0862 63.4609 41.1862 63.4609C39.7222 63.4609 38.4382 62.2249 38.4382 60.5089C38.4382 58.8529 39.6502 57.5689 41.2342 57.5689C42.0742 57.5689 42.8662 57.9289 43.2382 58.5889ZM41.3422 62.4769C42.3382 62.4769 43.2382 61.6489 43.2382 60.5089C43.2382 59.3569 42.2662 58.5529 41.3302 58.5529C40.3102 58.5529 39.4942 59.4529 39.4942 60.5089C39.4942 61.5769 40.3102 62.4769 41.3422 62.4769Z" fill="#302E3E"/>
<defs>
<clipPath id="clip0_1_11">
<rect width="81.0864" height="20.6338" fill="white" transform="translate(9.45679 13.6831)"/>
</clipPath>
</defs>
</svg>
